<svg width="122" height="122" viewBox="0 0 122 122" fill="none" xmlns="http://www.w3.org/2000/svg">
<path d="M61 10.1666C32.94 10.1666 10.1667 32.94 10.1667 61C10.1667 89.06 32.94 111.833 61 111.833C89.06 111.833 111.833 89.06 111.833 61C111.833 32.94 89.06 10.1666 61 10.1666ZM61 25.4166C69.4384 25.4166 76.25 32.2283 76.25 40.6666C76.25 49.105 69.4384 55.9166 61 55.9166C52.5617 55.9166 45.75 49.105 45.75 40.6666C45.75 32.2283 52.5617 25.4166 61 25.4166ZM61 97.6C48.2917 97.6 37.0575 91.0933 30.5 81.2316C30.6525 71.1158 50.8334 65.575 61 65.575C71.1158 65.575 91.3475 71.1158 91.5 81.2316C84.9425 91.0933 73.7084 97.6 61 97.6Z" fill="#D9D9D9"/>
</svg>
