<svg width="322" height="380" viewBox="0 0 322 380" fill="none" xmlns="http://www.w3.org/2000/svg">
<rect width="291" height="350.393" fill="#F0DAB3"/>
<path d="M241.456 306.783L290.776 311.579L246.685 352.022L241.456 306.783Z" fill="#D9D9D9"/>
<path d="M295.822 356.65L246.502 351.854L290.593 311.411L295.822 356.65Z" fill="#F2F2F2"/>
<path d="M32.7839 24.26V25.62H37.0039V24.26H32.7839ZM31.1039 20.52V21.16C31.1039 24.66 28.9639 27.36 23.9639 28.86L24.6439 30.18C30.2639 28.46 32.8239 25.12 32.8239 20.52H31.1039ZM24.7839 20.52V21.86H32.0839V20.52H24.7839ZM31.0839 23.8L23.8839 24.14L24.1639 25.5L31.0839 24.96V23.8ZM36.7039 19.48V29.9H38.3639V19.48H36.7039ZM26.7039 30.88V37.32H38.3639V30.88H26.7039ZM36.7439 32.2V35.98H28.3439V32.2H36.7439ZM46.1423 30.26V37.56H47.8023V30.26H46.1423ZM52.3823 30.26V37.56H54.0423V30.26H52.3823ZM43.4223 20.48V21.84H56.7023V20.48H43.4223ZM43.5023 26.7V28.06H56.6223V26.7H43.5023ZM46.1623 21.54V27.5H47.8223V21.54H46.1623ZM52.3223 21.54V27.5H53.9623V21.54H52.3223ZM41.8823 30.12V31.48H58.2623V30.12H41.8823ZM73.5408 19.46V37.58H75.1808V19.46H73.5408ZM69.7808 26.28V27.66H73.7808V26.28H69.7808ZM61.1208 31.86V33.24H62.5008C65.9408 33.24 68.1408 33.14 70.7408 32.68L70.5808 31.32C68.0408 31.8 65.9008 31.86 62.5008 31.86H61.1208ZM61.1208 21.12V32.34H62.7608V22.5H69.4808V21.12H61.1208ZM62.3408 26.2V27.54H68.7008V26.2H62.3408ZM86.7992 30.88C82.9392 30.88 80.4992 32.14 80.4992 34.22C80.4992 36.28 82.9392 37.52 86.7992 37.52C90.6392 37.52 93.0992 36.28 93.0992 34.22C93.0992 32.14 90.6392 30.88 86.7992 30.88ZM86.7992 32.18C89.6392 32.18 91.4392 32.96 91.4392 34.22C91.4392 35.46 89.6392 36.24 86.7992 36.24C83.9592 36.24 82.1392 35.46 82.1392 34.22C82.1392 32.96 83.9592 32.18 86.7992 32.18ZM80.6392 20.38V21.74H92.2792V20.38H80.6392ZM78.6992 27.9V29.24H95.0192V27.9H78.6992ZM85.3992 24.42V28.28H87.0392V24.42H85.3992ZM91.3192 20.38V21.92C91.3192 23.34 91.3192 24.66 90.8192 26.52L92.4592 26.72C92.9392 24.84 92.9392 23.38 92.9392 21.92V20.38H91.3192ZM97.1377 21.38V22.74H107.818V21.38H97.1377ZM102.478 23.66C99.8777 23.66 98.1377 24.94 98.1377 26.94C98.1377 28.92 99.8777 30.18 102.478 30.18C105.038 30.18 106.798 28.92 106.798 26.94C106.798 24.94 105.038 23.66 102.478 23.66ZM102.478 24.96C104.098 24.96 105.218 25.72 105.218 26.94C105.218 28.12 104.098 28.9 102.478 28.9C100.818 28.9 99.7177 28.12 99.7177 26.94C99.7177 25.72 100.818 24.96 102.478 24.96ZM109.458 19.48V30.78H111.118V19.48H109.458ZM110.658 24.46V25.84H113.798V24.46H110.658ZM99.3777 31.76V33.12H109.458V37.56H111.118V31.76H99.3777ZM101.638 19.38V22.14H103.298V19.38H101.638Z" fill="black"/>
<path d="M50.9794 164.46V182.58H52.6394V164.46H50.9794ZM43.0994 165.86C40.4394 165.86 38.5194 168.32 38.5194 172.16C38.5194 176.02 40.4394 178.48 43.0994 178.48C45.7794 178.48 47.6994 176.02 47.6994 172.16C47.6994 168.32 45.7794 165.86 43.0994 165.86ZM43.0994 167.36C44.8794 167.36 46.0994 169.24 46.0994 172.16C46.0994 175.1 44.8794 177.02 43.0994 177.02C41.3394 177.02 40.0994 175.1 40.0994 172.16C40.0994 169.24 41.3394 167.36 43.0994 167.36ZM57.1978 166.04V174.46H65.6178V166.04H57.1978ZM64.0178 167.38V173.12H58.7978V167.38H64.0178ZM69.3978 164.5V177.48H71.0778V164.5H69.3978ZM59.4578 180.6V181.98H71.6178V180.6H59.4578ZM59.4578 176.24V181.16H61.0978V176.24H59.4578ZM74.6363 174.84V176.2H91.0363V174.84H74.6363ZM81.9563 175.68V182.56H83.5963V175.68H81.9563ZM82.7963 165.2C79.0363 165.2 76.4763 166.74 76.4763 169.16C76.4763 171.58 79.0363 173.12 82.7963 173.12C86.5763 173.12 89.1163 171.58 89.1163 169.16C89.1163 166.74 86.5763 165.2 82.7963 165.2ZM82.7963 166.54C85.5563 166.54 87.4163 167.56 87.4163 169.16C87.4163 170.76 85.5563 171.78 82.7963 171.78C80.0363 171.78 78.1563 170.76 78.1563 169.16C78.1563 167.56 80.0363 166.54 82.7963 166.54ZM100.36 166.28V167.66H112V166.28H100.36ZM98.6797 178.66V180.04H115.02V178.66H98.6797ZM102.68 172.68V179.16H104.32V172.68H102.68ZM111.46 166.28V168.28C111.46 170.52 111.46 172.92 110.82 176.12L112.48 176.32C113.1 172.94 113.1 170.58 113.1 168.28V166.28H111.46ZM107.14 172.68V179.16H108.78V172.68H107.14ZM124.378 165.12V166.12C124.378 168.7 121.198 170.86 117.898 171.36L118.558 172.7C122.318 172.06 125.838 169.58 125.838 166.12V165.12H124.378ZM124.678 165.12V166.12C124.678 169.54 128.218 172.06 131.938 172.7L132.598 171.36C129.338 170.86 126.118 168.64 126.118 166.12V165.12H124.678ZM124.378 175.68V182.56H126.018V175.68H124.378ZM117.078 174.66V176.04H133.418V174.66H117.078ZM148.617 164.48V174.72H150.277V164.48H148.617ZM136.597 165.52V172.88H138.237V165.52H136.597ZM136.597 171.96V173.36H138.057C141.177 173.36 143.897 173.16 146.897 172.52L146.657 171.16C143.777 171.76 141.077 171.96 138.057 171.96H136.597ZM138.597 175.6V182.32H150.277V175.6H138.597ZM148.657 176.92V180.96H140.217V176.92H148.657ZM169.32 179.22V181H159.78C159.727 180.8 159.7 180.553 159.7 180.26C159.7 178.98 160.567 177.533 162.3 175.92C163.02 175.24 163.74 174.56 164.46 173.88C165.18 173.2 165.793 172.453 166.3 171.64C166.807 170.827 167.06 170.04 167.06 169.28C167.06 168.507 166.82 167.86 166.34 167.34C165.873 166.807 165.193 166.54 164.3 166.54C163.407 166.54 162.66 166.86 162.06 167.5L161.08 170.14H160.06V167.5C160.54 166.94 161.173 166.513 161.96 166.22C162.747 165.913 163.573 165.76 164.44 165.76C165.773 165.76 166.867 166.133 167.72 166.88C168.587 167.613 169.02 168.493 169.02 169.52C169.02 170.267 168.767 171.007 168.26 171.74C167.767 172.46 167.153 173.12 166.42 173.72C165.7 174.307 164.973 174.887 164.24 175.46C162.453 176.86 161.487 178.113 161.34 179.22H169.32ZM179.162 166.26V167.02C179.162 169.4 176.062 171.48 172.882 171.94L173.522 173.26C177.162 172.64 180.602 170.26 180.602 167.02V166.26H179.162ZM179.582 166.26V167.02C179.582 170.26 183.002 172.64 186.662 173.26L187.282 171.94C184.122 171.48 181.002 169.4 181.002 167.02V166.26H179.582ZM179.222 175.66V182.56H180.862V175.66H179.222ZM171.922 174.78V176.14H188.262V174.78H171.922ZM173.442 165.6V166.94H186.682V165.6H173.442ZM194.72 168.78V170.32C194.72 173.44 192.8 176.52 190.14 177.8L191.08 179.08C193.94 177.66 196.02 174.14 196.02 170.32V168.78H194.72ZM195.04 168.78V170.32C195.04 173.92 197 177.34 199.82 178.74L200.74 177.46C198.16 176.18 196.34 173.24 196.34 170.32V168.78H195.04ZM190.64 167.62V168.96H200.34V167.62H190.64ZM194.7 164.8V168.36H196.34V164.8H194.7ZM202.54 164.48V182.56H204.22V164.48H202.54ZM203.82 171.9V173.28H207.18V171.9H203.82ZM226.704 164.48V175.3H228.364V164.48H226.704ZM227.904 169.14V170.54H231.044V169.14H227.904ZM221.704 165.8V166.56C221.704 169.94 218.944 172.66 214.344 174.02L215.044 175.36C220.264 173.82 223.484 170.44 223.484 165.8H221.704ZM215.144 165.8V167.18H222.644V165.8H215.144ZM222.704 175.52C219.104 175.52 216.804 176.84 216.804 179.02C216.804 181.2 219.104 182.52 222.704 182.52C226.284 182.52 228.564 181.2 228.564 179.02C228.564 176.84 226.284 175.52 222.704 175.52ZM222.704 176.84C225.304 176.84 226.964 177.66 226.964 179.02C226.964 180.38 225.304 181.2 222.704 181.2C220.104 181.2 218.444 180.38 218.444 179.02C218.444 177.66 220.104 176.84 222.704 176.84ZM238.602 165.78C235.782 165.78 233.742 167.52 233.742 170.04C233.742 172.58 235.782 174.32 238.602 174.32C241.422 174.32 243.442 172.58 243.442 170.04C243.442 167.52 241.422 165.78 238.602 165.78ZM238.602 167.22C240.462 167.22 241.822 168.36 241.822 170.04C241.822 171.72 240.462 172.88 238.602 172.88C236.722 172.88 235.362 171.72 235.362 170.04C235.362 168.36 236.722 167.22 238.602 167.22ZM245.802 164.46V182.58H247.462V164.46H245.802ZM233.062 178.62C236.282 178.62 240.702 178.6 244.762 177.82L244.622 176.6C240.682 177.22 236.122 177.24 232.822 177.24L233.062 178.62Z" fill="black"/>
<path d="M236.285 27.3697H234.59L234.29 29.4847H235.985L236.285 27.3697ZM231.05 30.0247V29.4847H233.24L233.555 27.3697H231.485V26.7847H233.615L234.17 22.9297H235.22L234.68 26.7847H236.345L236.93 22.9297H237.905L237.38 26.7847H239.315V27.3697H237.29L237.005 29.4847H238.91V30.0247H236.93L236.33 34.1797H235.34L235.91 30.0247H234.215L233.63 34.1797H232.61L233.18 30.0247H231.05ZM241.212 23.0497V24.0697H248.457V23.0497H241.212ZM240.987 29.7697C243.297 29.7697 246.477 29.6947 249.177 29.2747L249.087 28.3447C246.432 28.6747 243.207 28.7047 240.837 28.7197L240.987 29.7697ZM242.547 23.8147V28.9297H243.747V23.8147H242.547ZM245.907 23.8147V28.9297H247.107V23.8147H245.907ZM250.077 21.8047V31.7947H251.322V21.8047H250.077ZM250.932 25.9147V26.9647H253.332V25.9147H250.932ZM242.877 34.0297V35.0497H251.937V34.0297H242.877ZM242.877 30.8347V34.2997H244.122V30.8347H242.877ZM264.926 21.7897V35.3497H266.126V21.7897H264.926ZM262.781 27.1597V28.1797H265.376V27.1597H262.781ZM261.926 22.0747V34.6747H263.111V22.0747H261.926ZM255.086 23.3497V31.7197H260.261V23.3497H255.086ZM259.091 24.3397V30.7297H256.256V24.3397H259.091Z" fill="black"/>
<line x1="18.9844" y1="51.2837" x2="266.017" y2="51.2837" stroke="#D9CAB0" stroke-width="2"/>
</svg>
